<mxfile host="app.diagrams.net" modified="2023-05-01T06:43:20.797Z" agent="Mozilla/5.0 (Windows NT 10.0; Win64; x64) AppleWebKit/537.36 (KHTML, like Gecko) Chrome/112.0.0.0 Safari/537.36" etag="rcxSZU8TYS6GWvLHU6uj" version="21.2.3" type="device" pages="2">
  <diagram name="sliding_window" id="2jnIjCWcIuCAJuNsyhK7">
    <mxGraphModel dx="1114" dy="620" grid="1" gridSize="10" guides="1" tooltips="1" connect="1" arrows="1" fold="1" page="1" pageScale="1" pageWidth="850" pageHeight="1100" math="0" shadow="0">
      <root>
        <mxCell id="0" />
        <mxCell id="1" parent="0" />
        <mxCell id="OxhpAwqdY3sQorc_yTqz-124" value="" style="rounded=0;whiteSpace=wrap;html=1;" parent="1" vertex="1">
          <mxGeometry y="160" width="760" height="530" as="geometry" />
        </mxCell>
        <mxCell id="OxhpAwqdY3sQorc_yTqz-64" value="" style="rounded=1;whiteSpace=wrap;html=1;fillColor=#dae8fc;strokeColor=#6c8ebf;" parent="1" vertex="1">
          <mxGeometry x="40" y="185" width="560" height="130" as="geometry" />
        </mxCell>
        <mxCell id="OxhpAwqdY3sQorc_yTqz-1" value="&lt;b&gt;1&lt;sup&gt;st&lt;/sup&gt; Jan&lt;/b&gt;" style="rounded=1;whiteSpace=wrap;html=1;fillColor=#d5e8d4;strokeColor=#82b366;gradientColor=#97d077;" parent="1" vertex="1">
          <mxGeometry x="40" y="225" width="40" height="40" as="geometry" />
        </mxCell>
        <mxCell id="OxhpAwqdY3sQorc_yTqz-2" value="&lt;b&gt;2&lt;sup&gt;nd&lt;/sup&gt; Jan&lt;/b&gt;" style="rounded=1;whiteSpace=wrap;html=1;fillColor=#d5e8d4;strokeColor=#82b366;gradientColor=#97d077;" parent="1" vertex="1">
          <mxGeometry x="80" y="225" width="40" height="40" as="geometry" />
        </mxCell>
        <mxCell id="OxhpAwqdY3sQorc_yTqz-3" value="&lt;b&gt;3&lt;sup&gt;rd&lt;/sup&gt;&amp;nbsp;&lt;br&gt;Jan&lt;/b&gt;" style="rounded=1;whiteSpace=wrap;html=1;fillColor=#d5e8d4;strokeColor=#82b366;gradientColor=#97d077;" parent="1" vertex="1">
          <mxGeometry x="120" y="225" width="40" height="40" as="geometry" />
        </mxCell>
        <mxCell id="OxhpAwqdY3sQorc_yTqz-5" value="&lt;b&gt;4&lt;sup&gt;th&lt;/sup&gt;&amp;nbsp;&lt;br&gt;Jan&lt;/b&gt;" style="rounded=1;whiteSpace=wrap;html=1;fillColor=#d5e8d4;strokeColor=#82b366;gradientColor=#97d077;" parent="1" vertex="1">
          <mxGeometry x="160" y="225" width="40" height="40" as="geometry" />
        </mxCell>
        <mxCell id="OxhpAwqdY3sQorc_yTqz-6" value="&lt;b&gt;5&lt;sup&gt;th&lt;/sup&gt;&amp;nbsp;&lt;br&gt;Jan&lt;/b&gt;" style="rounded=1;whiteSpace=wrap;html=1;fillColor=#d5e8d4;strokeColor=#82b366;gradientColor=#97d077;" parent="1" vertex="1">
          <mxGeometry x="200" y="225" width="40" height="40" as="geometry" />
        </mxCell>
        <mxCell id="OxhpAwqdY3sQorc_yTqz-7" value="&lt;b&gt;6&lt;sup&gt;th&lt;/sup&gt;&amp;nbsp;&lt;br&gt;Jan&lt;/b&gt;" style="rounded=1;whiteSpace=wrap;html=1;fillColor=#d5e8d4;strokeColor=#82b366;gradientColor=#97d077;" parent="1" vertex="1">
          <mxGeometry x="240" y="225" width="40" height="40" as="geometry" />
        </mxCell>
        <mxCell id="OxhpAwqdY3sQorc_yTqz-9" value="" style="endArrow=none;dashed=1;html=1;dashPattern=1 3;strokeWidth=2;rounded=0;fillColor=#dae8fc;gradientColor=#7ea6e0;strokeColor=#6c8ebf;" parent="1" edge="1">
          <mxGeometry width="50" height="50" relative="1" as="geometry">
            <mxPoint x="290" y="245" as="sourcePoint" />
            <mxPoint x="430" y="245" as="targetPoint" />
          </mxGeometry>
        </mxCell>
        <mxCell id="OxhpAwqdY3sQorc_yTqz-10" value="&lt;b&gt;28&lt;sup&gt;th&lt;/sup&gt; Mar&lt;/b&gt;" style="rounded=1;whiteSpace=wrap;html=1;fillColor=#d5e8d4;strokeColor=#82b366;gradientColor=#97d077;" parent="1" vertex="1">
          <mxGeometry x="440" y="225" width="40" height="40" as="geometry" />
        </mxCell>
        <mxCell id="OxhpAwqdY3sQorc_yTqz-16" value="&lt;b&gt;29&lt;sup&gt;th&lt;/sup&gt; Mar&lt;/b&gt;" style="rounded=1;whiteSpace=wrap;html=1;fillColor=#d5e8d4;strokeColor=#82b366;gradientColor=#97d077;" parent="1" vertex="1">
          <mxGeometry x="480" y="225" width="40" height="40" as="geometry" />
        </mxCell>
        <mxCell id="OxhpAwqdY3sQorc_yTqz-17" value="&lt;b&gt;30&lt;sup&gt;th&lt;/sup&gt; Mar&lt;/b&gt;" style="rounded=1;whiteSpace=wrap;html=1;fillColor=#d5e8d4;strokeColor=#82b366;gradientColor=#97d077;" parent="1" vertex="1">
          <mxGeometry x="520" y="225" width="40" height="40" as="geometry" />
        </mxCell>
        <mxCell id="OxhpAwqdY3sQorc_yTqz-18" value="&lt;b&gt;31&lt;sup&gt;th&lt;/sup&gt; Mar&lt;/b&gt;" style="rounded=1;whiteSpace=wrap;html=1;fillColor=#d5e8d4;strokeColor=#82b366;gradientColor=#97d077;" parent="1" vertex="1">
          <mxGeometry x="560" y="225" width="40" height="40" as="geometry" />
        </mxCell>
        <mxCell id="OxhpAwqdY3sQorc_yTqz-19" value="&lt;b&gt;1&lt;sup&gt;st&lt;/sup&gt;&amp;nbsp;&lt;br&gt;Apr&lt;/b&gt;" style="rounded=1;whiteSpace=wrap;html=1;fillColor=#dae8fc;strokeColor=#6c8ebf;gradientColor=#7ea6e0;" parent="1" vertex="1">
          <mxGeometry x="600" y="225" width="40" height="40" as="geometry" />
        </mxCell>
        <mxCell id="OxhpAwqdY3sQorc_yTqz-20" value="&lt;b&gt;2&lt;sup&gt;nd&lt;/sup&gt;&amp;nbsp;&lt;br&gt;Apr&lt;/b&gt;" style="rounded=1;whiteSpace=wrap;html=1;fillColor=#dae8fc;strokeColor=#6c8ebf;gradientColor=#7ea6e0;" parent="1" vertex="1">
          <mxGeometry x="640" y="225" width="40" height="40" as="geometry" />
        </mxCell>
        <mxCell id="OxhpAwqdY3sQorc_yTqz-21" value="&lt;b&gt;3&lt;sup&gt;rd&lt;/sup&gt;&amp;nbsp;&lt;br&gt;Apr&lt;/b&gt;" style="rounded=1;whiteSpace=wrap;html=1;fillColor=#dae8fc;strokeColor=#6c8ebf;gradientColor=#7ea6e0;" parent="1" vertex="1">
          <mxGeometry x="680" y="225" width="40" height="40" as="geometry" />
        </mxCell>
        <mxCell id="OxhpAwqdY3sQorc_yTqz-67" value="&lt;font size=&quot;1&quot;&gt;&lt;b style=&quot;font-size: 14px;&quot;&gt;90 Days sliding window&lt;/b&gt;&lt;/font&gt;" style="rounded=0;whiteSpace=wrap;html=1;fillColor=none;strokeColor=none;" parent="1" vertex="1">
          <mxGeometry x="185" y="185" width="270" height="30" as="geometry" />
        </mxCell>
        <mxCell id="OxhpAwqdY3sQorc_yTqz-68" value="" style="shape=curlyBracket;whiteSpace=wrap;html=1;rounded=1;flipH=1;labelPosition=right;verticalLabelPosition=middle;align=left;verticalAlign=middle;rotation=90;strokeColor=#FF3333;" parent="1" vertex="1">
          <mxGeometry x="190" y="125" width="20" height="310" as="geometry" />
        </mxCell>
        <mxCell id="OxhpAwqdY3sQorc_yTqz-69" value="&lt;font size=&quot;1&quot;&gt;&lt;b style=&quot;font-size: 14px;&quot;&gt;60 Days input&lt;/b&gt;&lt;/font&gt;" style="rounded=0;whiteSpace=wrap;html=1;fillColor=none;strokeColor=none;" parent="1" vertex="1">
          <mxGeometry x="80" y="285" width="270" height="30" as="geometry" />
        </mxCell>
        <mxCell id="OxhpAwqdY3sQorc_yTqz-70" value="" style="shape=curlyBracket;whiteSpace=wrap;html=1;rounded=1;flipH=1;labelPosition=right;verticalLabelPosition=middle;align=left;verticalAlign=middle;rotation=90;strokeColor=#FF3333;" parent="1" vertex="1">
          <mxGeometry x="468.75" y="163.75" width="20" height="232.5" as="geometry" />
        </mxCell>
        <mxCell id="OxhpAwqdY3sQorc_yTqz-71" value="&lt;font size=&quot;1&quot;&gt;&lt;b style=&quot;font-size: 14px;&quot;&gt;30 Days Result&lt;/b&gt;&lt;/font&gt;" style="rounded=0;whiteSpace=wrap;html=1;fillColor=none;strokeColor=none;" parent="1" vertex="1">
          <mxGeometry x="415" y="285" width="155" height="30" as="geometry" />
        </mxCell>
        <mxCell id="OxhpAwqdY3sQorc_yTqz-84" value="" style="rounded=1;whiteSpace=wrap;html=1;fillColor=#dae8fc;strokeColor=#6c8ebf;" parent="1" vertex="1">
          <mxGeometry x="80" y="360" width="560" height="130" as="geometry" />
        </mxCell>
        <mxCell id="OxhpAwqdY3sQorc_yTqz-85" value="&lt;b&gt;1&lt;sup&gt;st&lt;/sup&gt; Jan&lt;/b&gt;" style="rounded=1;whiteSpace=wrap;html=1;fillColor=#dae8fc;strokeColor=#6c8ebf;gradientColor=#7ea6e0;" parent="1" vertex="1">
          <mxGeometry x="40" y="400" width="40" height="40" as="geometry" />
        </mxCell>
        <mxCell id="OxhpAwqdY3sQorc_yTqz-86" value="&lt;b&gt;2&lt;sup&gt;nd&lt;/sup&gt; Jan&lt;/b&gt;" style="rounded=1;whiteSpace=wrap;html=1;fillColor=#d5e8d4;strokeColor=#82b366;gradientColor=#97d077;" parent="1" vertex="1">
          <mxGeometry x="80" y="400" width="40" height="40" as="geometry" />
        </mxCell>
        <mxCell id="OxhpAwqdY3sQorc_yTqz-87" value="&lt;b&gt;3&lt;sup&gt;rd&lt;/sup&gt;&amp;nbsp;&lt;br&gt;Jan&lt;/b&gt;" style="rounded=1;whiteSpace=wrap;html=1;fillColor=#d5e8d4;strokeColor=#82b366;gradientColor=#97d077;" parent="1" vertex="1">
          <mxGeometry x="120" y="400" width="40" height="40" as="geometry" />
        </mxCell>
        <mxCell id="OxhpAwqdY3sQorc_yTqz-88" value="&lt;b&gt;4&lt;sup&gt;th&lt;/sup&gt;&amp;nbsp;&lt;br&gt;Jan&lt;/b&gt;" style="rounded=1;whiteSpace=wrap;html=1;fillColor=#d5e8d4;strokeColor=#82b366;gradientColor=#97d077;" parent="1" vertex="1">
          <mxGeometry x="160" y="400" width="40" height="40" as="geometry" />
        </mxCell>
        <mxCell id="OxhpAwqdY3sQorc_yTqz-89" value="&lt;b&gt;5&lt;sup&gt;th&lt;/sup&gt;&amp;nbsp;&lt;br&gt;Jan&lt;/b&gt;" style="rounded=1;whiteSpace=wrap;html=1;fillColor=#d5e8d4;strokeColor=#82b366;gradientColor=#97d077;" parent="1" vertex="1">
          <mxGeometry x="200" y="400" width="40" height="40" as="geometry" />
        </mxCell>
        <mxCell id="OxhpAwqdY3sQorc_yTqz-90" value="&lt;b&gt;6&lt;sup&gt;th&lt;/sup&gt;&amp;nbsp;&lt;br&gt;Jan&lt;/b&gt;" style="rounded=1;whiteSpace=wrap;html=1;fillColor=#d5e8d4;strokeColor=#82b366;gradientColor=#97d077;" parent="1" vertex="1">
          <mxGeometry x="240" y="400" width="40" height="40" as="geometry" />
        </mxCell>
        <mxCell id="OxhpAwqdY3sQorc_yTqz-91" value="" style="endArrow=none;dashed=1;html=1;dashPattern=1 3;strokeWidth=2;rounded=0;fillColor=#dae8fc;gradientColor=#7ea6e0;strokeColor=#6c8ebf;" parent="1" edge="1">
          <mxGeometry width="50" height="50" relative="1" as="geometry">
            <mxPoint x="290" y="420" as="sourcePoint" />
            <mxPoint x="430" y="420" as="targetPoint" />
          </mxGeometry>
        </mxCell>
        <mxCell id="OxhpAwqdY3sQorc_yTqz-92" value="&lt;b&gt;28&lt;sup&gt;th&lt;/sup&gt; Mar&lt;/b&gt;" style="rounded=1;whiteSpace=wrap;html=1;fillColor=#d5e8d4;strokeColor=#82b366;gradientColor=#97d077;" parent="1" vertex="1">
          <mxGeometry x="440" y="400" width="40" height="40" as="geometry" />
        </mxCell>
        <mxCell id="OxhpAwqdY3sQorc_yTqz-93" value="&lt;b&gt;29&lt;sup&gt;th&lt;/sup&gt; Mar&lt;/b&gt;" style="rounded=1;whiteSpace=wrap;html=1;fillColor=#d5e8d4;strokeColor=#82b366;gradientColor=#97d077;" parent="1" vertex="1">
          <mxGeometry x="480" y="400" width="40" height="40" as="geometry" />
        </mxCell>
        <mxCell id="OxhpAwqdY3sQorc_yTqz-94" value="&lt;b&gt;30&lt;sup&gt;th&lt;/sup&gt; Mar&lt;/b&gt;" style="rounded=1;whiteSpace=wrap;html=1;fillColor=#d5e8d4;strokeColor=#82b366;gradientColor=#97d077;" parent="1" vertex="1">
          <mxGeometry x="520" y="400" width="40" height="40" as="geometry" />
        </mxCell>
        <mxCell id="OxhpAwqdY3sQorc_yTqz-95" value="&lt;b&gt;31&lt;sup&gt;th&lt;/sup&gt; Mar&lt;/b&gt;" style="rounded=1;whiteSpace=wrap;html=1;fillColor=#d5e8d4;strokeColor=#82b366;gradientColor=#97d077;" parent="1" vertex="1">
          <mxGeometry x="560" y="400" width="40" height="40" as="geometry" />
        </mxCell>
        <mxCell id="OxhpAwqdY3sQorc_yTqz-96" value="&lt;b&gt;1&lt;sup&gt;st&lt;/sup&gt;&amp;nbsp;&lt;br&gt;Apr&lt;/b&gt;" style="rounded=1;whiteSpace=wrap;html=1;fillColor=#d5e8d4;strokeColor=#82b366;gradientColor=#97d077;" parent="1" vertex="1">
          <mxGeometry x="600" y="400" width="40" height="40" as="geometry" />
        </mxCell>
        <mxCell id="OxhpAwqdY3sQorc_yTqz-97" value="&lt;b&gt;2&lt;sup&gt;nd&lt;/sup&gt;&amp;nbsp;&lt;br&gt;Apr&lt;/b&gt;" style="rounded=1;whiteSpace=wrap;html=1;fillColor=#dae8fc;strokeColor=#6c8ebf;gradientColor=#7ea6e0;" parent="1" vertex="1">
          <mxGeometry x="640" y="400" width="40" height="40" as="geometry" />
        </mxCell>
        <mxCell id="OxhpAwqdY3sQorc_yTqz-98" value="&lt;b&gt;3&lt;sup&gt;rd&lt;/sup&gt;&amp;nbsp;&lt;br&gt;Apr&lt;/b&gt;" style="rounded=1;whiteSpace=wrap;html=1;fillColor=#dae8fc;strokeColor=#6c8ebf;gradientColor=#7ea6e0;" parent="1" vertex="1">
          <mxGeometry x="680" y="400" width="40" height="40" as="geometry" />
        </mxCell>
        <mxCell id="OxhpAwqdY3sQorc_yTqz-99" value="&lt;font size=&quot;1&quot;&gt;&lt;b style=&quot;font-size: 14px;&quot;&gt;90 Days sliding window&lt;/b&gt;&lt;/font&gt;" style="rounded=0;whiteSpace=wrap;html=1;fillColor=none;strokeColor=none;" parent="1" vertex="1">
          <mxGeometry x="225" y="360" width="270" height="30" as="geometry" />
        </mxCell>
        <mxCell id="OxhpAwqdY3sQorc_yTqz-100" value="" style="shape=curlyBracket;whiteSpace=wrap;html=1;rounded=1;flipH=1;labelPosition=right;verticalLabelPosition=middle;align=left;verticalAlign=middle;rotation=90;strokeColor=#FF3333;" parent="1" vertex="1">
          <mxGeometry x="223.75" y="306.25" width="20" height="297.5" as="geometry" />
        </mxCell>
        <mxCell id="OxhpAwqdY3sQorc_yTqz-101" value="&lt;font size=&quot;1&quot;&gt;&lt;b style=&quot;font-size: 14px;&quot;&gt;60 Days input&lt;/b&gt;&lt;/font&gt;" style="rounded=0;whiteSpace=wrap;html=1;fillColor=none;strokeColor=none;" parent="1" vertex="1">
          <mxGeometry x="120" y="460" width="270" height="30" as="geometry" />
        </mxCell>
        <mxCell id="OxhpAwqdY3sQorc_yTqz-102" value="" style="shape=curlyBracket;whiteSpace=wrap;html=1;rounded=1;flipH=1;labelPosition=right;verticalLabelPosition=middle;align=left;verticalAlign=middle;rotation=90;strokeColor=#FF3333;" parent="1" vertex="1">
          <mxGeometry x="502.82" y="332.82" width="20" height="244.37" as="geometry" />
        </mxCell>
        <mxCell id="OxhpAwqdY3sQorc_yTqz-103" value="&lt;font size=&quot;1&quot;&gt;&lt;b style=&quot;font-size: 14px;&quot;&gt;30 Days Result&lt;/b&gt;&lt;/font&gt;" style="rounded=0;whiteSpace=wrap;html=1;fillColor=none;strokeColor=none;" parent="1" vertex="1">
          <mxGeometry x="455" y="460" width="155" height="30" as="geometry" />
        </mxCell>
        <mxCell id="OxhpAwqdY3sQorc_yTqz-104" value="" style="rounded=1;whiteSpace=wrap;html=1;fillColor=#dae8fc;strokeColor=#6c8ebf;" parent="1" vertex="1">
          <mxGeometry x="120" y="535" width="560" height="130" as="geometry" />
        </mxCell>
        <mxCell id="OxhpAwqdY3sQorc_yTqz-105" value="&lt;b&gt;1&lt;sup&gt;st&lt;/sup&gt; Jan&lt;/b&gt;" style="rounded=1;whiteSpace=wrap;html=1;fillColor=#dae8fc;strokeColor=#6c8ebf;gradientColor=#7ea6e0;" parent="1" vertex="1">
          <mxGeometry x="40" y="575" width="40" height="40" as="geometry" />
        </mxCell>
        <mxCell id="OxhpAwqdY3sQorc_yTqz-106" value="&lt;b&gt;2&lt;sup&gt;nd&lt;/sup&gt; Jan&lt;/b&gt;" style="rounded=1;whiteSpace=wrap;html=1;fillColor=#dae8fc;strokeColor=#6c8ebf;gradientColor=#7ea6e0;" parent="1" vertex="1">
          <mxGeometry x="80" y="575" width="40" height="40" as="geometry" />
        </mxCell>
        <mxCell id="OxhpAwqdY3sQorc_yTqz-107" value="&lt;b&gt;3&lt;sup&gt;rd&lt;/sup&gt;&amp;nbsp;&lt;br&gt;Jan&lt;/b&gt;" style="rounded=1;whiteSpace=wrap;html=1;fillColor=#d5e8d4;strokeColor=#82b366;gradientColor=#97d077;" parent="1" vertex="1">
          <mxGeometry x="120" y="575" width="40" height="40" as="geometry" />
        </mxCell>
        <mxCell id="OxhpAwqdY3sQorc_yTqz-108" value="&lt;b&gt;4&lt;sup&gt;th&lt;/sup&gt;&amp;nbsp;&lt;br&gt;Jan&lt;/b&gt;" style="rounded=1;whiteSpace=wrap;html=1;fillColor=#d5e8d4;strokeColor=#82b366;gradientColor=#97d077;" parent="1" vertex="1">
          <mxGeometry x="160" y="575" width="40" height="40" as="geometry" />
        </mxCell>
        <mxCell id="OxhpAwqdY3sQorc_yTqz-109" value="&lt;b&gt;5&lt;sup&gt;th&lt;/sup&gt;&amp;nbsp;&lt;br&gt;Jan&lt;/b&gt;" style="rounded=1;whiteSpace=wrap;html=1;fillColor=#d5e8d4;strokeColor=#82b366;gradientColor=#97d077;" parent="1" vertex="1">
          <mxGeometry x="200" y="575" width="40" height="40" as="geometry" />
        </mxCell>
        <mxCell id="OxhpAwqdY3sQorc_yTqz-110" value="&lt;b&gt;6&lt;sup&gt;th&lt;/sup&gt;&amp;nbsp;&lt;br&gt;Jan&lt;/b&gt;" style="rounded=1;whiteSpace=wrap;html=1;fillColor=#d5e8d4;strokeColor=#82b366;gradientColor=#97d077;" parent="1" vertex="1">
          <mxGeometry x="240" y="575" width="40" height="40" as="geometry" />
        </mxCell>
        <mxCell id="OxhpAwqdY3sQorc_yTqz-111" value="" style="endArrow=none;dashed=1;html=1;dashPattern=1 3;strokeWidth=2;rounded=0;fillColor=#dae8fc;gradientColor=#7ea6e0;strokeColor=#6c8ebf;" parent="1" edge="1">
          <mxGeometry width="50" height="50" relative="1" as="geometry">
            <mxPoint x="290" y="595" as="sourcePoint" />
            <mxPoint x="430" y="595" as="targetPoint" />
          </mxGeometry>
        </mxCell>
        <mxCell id="OxhpAwqdY3sQorc_yTqz-112" value="&lt;b&gt;28&lt;sup&gt;th&lt;/sup&gt; Mar&lt;/b&gt;" style="rounded=1;whiteSpace=wrap;html=1;fillColor=#d5e8d4;strokeColor=#82b366;gradientColor=#97d077;" parent="1" vertex="1">
          <mxGeometry x="440" y="575" width="40" height="40" as="geometry" />
        </mxCell>
        <mxCell id="OxhpAwqdY3sQorc_yTqz-113" value="&lt;b&gt;29&lt;sup&gt;th&lt;/sup&gt; Mar&lt;/b&gt;" style="rounded=1;whiteSpace=wrap;html=1;fillColor=#d5e8d4;strokeColor=#82b366;gradientColor=#97d077;" parent="1" vertex="1">
          <mxGeometry x="480" y="575" width="40" height="40" as="geometry" />
        </mxCell>
        <mxCell id="OxhpAwqdY3sQorc_yTqz-114" value="&lt;b&gt;30&lt;sup&gt;th&lt;/sup&gt; Mar&lt;/b&gt;" style="rounded=1;whiteSpace=wrap;html=1;fillColor=#d5e8d4;strokeColor=#82b366;gradientColor=#97d077;" parent="1" vertex="1">
          <mxGeometry x="520" y="575" width="40" height="40" as="geometry" />
        </mxCell>
        <mxCell id="OxhpAwqdY3sQorc_yTqz-115" value="&lt;b&gt;31&lt;sup&gt;th&lt;/sup&gt; Mar&lt;/b&gt;" style="rounded=1;whiteSpace=wrap;html=1;fillColor=#d5e8d4;strokeColor=#82b366;gradientColor=#97d077;" parent="1" vertex="1">
          <mxGeometry x="560" y="575" width="40" height="40" as="geometry" />
        </mxCell>
        <mxCell id="OxhpAwqdY3sQorc_yTqz-116" value="&lt;b&gt;1&lt;sup&gt;st&lt;/sup&gt;&amp;nbsp;&lt;br&gt;Apr&lt;/b&gt;" style="rounded=1;whiteSpace=wrap;html=1;fillColor=#d5e8d4;strokeColor=#82b366;gradientColor=#97d077;" parent="1" vertex="1">
          <mxGeometry x="600" y="575" width="40" height="40" as="geometry" />
        </mxCell>
        <mxCell id="OxhpAwqdY3sQorc_yTqz-117" value="&lt;b&gt;2&lt;sup&gt;nd&lt;/sup&gt;&amp;nbsp;&lt;br&gt;Apr&lt;/b&gt;" style="rounded=1;whiteSpace=wrap;html=1;fillColor=#d5e8d4;strokeColor=#82b366;gradientColor=#97d077;" parent="1" vertex="1">
          <mxGeometry x="640" y="575" width="40" height="40" as="geometry" />
        </mxCell>
        <mxCell id="OxhpAwqdY3sQorc_yTqz-118" value="&lt;b&gt;3&lt;sup&gt;rd&lt;/sup&gt;&amp;nbsp;&lt;br&gt;Apr&lt;/b&gt;" style="rounded=1;whiteSpace=wrap;html=1;fillColor=#dae8fc;strokeColor=#6c8ebf;gradientColor=#7ea6e0;" parent="1" vertex="1">
          <mxGeometry x="680" y="575" width="40" height="40" as="geometry" />
        </mxCell>
        <mxCell id="OxhpAwqdY3sQorc_yTqz-119" value="&lt;font size=&quot;1&quot;&gt;&lt;b style=&quot;font-size: 14px;&quot;&gt;90 Days sliding window&lt;/b&gt;&lt;/font&gt;" style="rounded=0;whiteSpace=wrap;html=1;fillColor=none;strokeColor=none;" parent="1" vertex="1">
          <mxGeometry x="265" y="535" width="270" height="30" as="geometry" />
        </mxCell>
        <mxCell id="OxhpAwqdY3sQorc_yTqz-120" value="" style="shape=curlyBracket;whiteSpace=wrap;html=1;rounded=1;flipH=1;labelPosition=right;verticalLabelPosition=middle;align=left;verticalAlign=middle;rotation=90;strokeColor=#FF3333;" parent="1" vertex="1">
          <mxGeometry x="255.62" y="489.37" width="20" height="281.25" as="geometry" />
        </mxCell>
        <mxCell id="OxhpAwqdY3sQorc_yTqz-121" value="&lt;font size=&quot;1&quot;&gt;&lt;b style=&quot;font-size: 14px;&quot;&gt;60 Days input&lt;/b&gt;&lt;/font&gt;" style="rounded=0;whiteSpace=wrap;html=1;fillColor=none;strokeColor=none;" parent="1" vertex="1">
          <mxGeometry x="160" y="635" width="270" height="30" as="geometry" />
        </mxCell>
        <mxCell id="OxhpAwqdY3sQorc_yTqz-122" value="" style="shape=curlyBracket;whiteSpace=wrap;html=1;rounded=1;flipH=1;labelPosition=right;verticalLabelPosition=middle;align=left;verticalAlign=middle;rotation=90;strokeColor=#FF3333;" parent="1" vertex="1">
          <mxGeometry x="534.21" y="499.21" width="20" height="261.57" as="geometry" />
        </mxCell>
        <mxCell id="OxhpAwqdY3sQorc_yTqz-123" value="&lt;font size=&quot;1&quot;&gt;&lt;b style=&quot;font-size: 14px;&quot;&gt;30 Days Result&lt;/b&gt;&lt;/font&gt;" style="rounded=0;whiteSpace=wrap;html=1;fillColor=none;strokeColor=none;" parent="1" vertex="1">
          <mxGeometry x="495" y="635" width="155" height="30" as="geometry" />
        </mxCell>
      </root>
    </mxGraphModel>
  </diagram>
  <diagram id="dbljwD2PrU05zUchvlCg" name="model_workflow">
    <mxGraphModel dx="1114" dy="620" grid="1" gridSize="10" guides="1" tooltips="1" connect="1" arrows="1" fold="1" page="1" pageScale="1" pageWidth="850" pageHeight="1100" math="0" shadow="0">
      <root>
        <mxCell id="0" />
        <mxCell id="1" parent="0" />
        <mxCell id="AVl82IMYhrW8MOQw_asO-38" value="&lt;ul style=&quot;font-size: 15px;&quot;&gt;&lt;li&gt;Rainfall&lt;/li&gt;&lt;li&gt;Windspeed&lt;/li&gt;&lt;li&gt;Humidity&lt;/li&gt;&lt;li&gt;Temperature&lt;/li&gt;&lt;li&gt;Evaporation&lt;/li&gt;&lt;li&gt;Pressure&lt;/li&gt;&lt;/ul&gt;" style="rounded=1;whiteSpace=wrap;html=1;align=left;verticalAlign=bottom;labelPosition=center;verticalLabelPosition=middle;" parent="1" vertex="1">
          <mxGeometry x="120" y="160" width="160" height="160" as="geometry" />
        </mxCell>
        <mxCell id="AVl82IMYhrW8MOQw_asO-37" value="&lt;font style=&quot;font-size: 14px;&quot;&gt;&lt;b&gt;Sequence data&lt;/b&gt;&lt;/font&gt;" style="rounded=1;whiteSpace=wrap;html=1;fillColor=#fad7ac;strokeColor=#b46504;" parent="1" vertex="1">
          <mxGeometry x="120" y="160" width="160" height="30" as="geometry" />
        </mxCell>
        <mxCell id="AVl82IMYhrW8MOQw_asO-40" value="&lt;font style=&quot;font-size: 14px;&quot;&gt;&lt;b&gt;One-hot Encoded&lt;br&gt;Predicting Month&lt;/b&gt;&lt;/font&gt;" style="rounded=1;whiteSpace=wrap;html=1;fillColor=#fad7ac;strokeColor=#b46504;" parent="1" vertex="1">
          <mxGeometry x="120" y="80" width="160" height="50" as="geometry" />
        </mxCell>
        <mxCell id="AVl82IMYhrW8MOQw_asO-41" value="" style="rounded=0;whiteSpace=wrap;html=1;fillColor=#f9f7ed;strokeColor=#36393d;" parent="1" vertex="1">
          <mxGeometry x="320" y="40" width="410" height="280" as="geometry" />
        </mxCell>
        <mxCell id="AVl82IMYhrW8MOQw_asO-42" value="&lt;font style=&quot;font-size: 14px;&quot;&gt;&lt;b&gt;LSTM&lt;/b&gt;&lt;br&gt;(hidden size = 32)&lt;/font&gt;" style="rounded=1;whiteSpace=wrap;html=1;fillColor=#dae8fc;gradientColor=#7ea6e0;strokeColor=#6c8ebf;" parent="1" vertex="1">
          <mxGeometry x="350" y="160" width="120" height="50" as="geometry" />
        </mxCell>
        <mxCell id="AVl82IMYhrW8MOQw_asO-43" value="&lt;font style=&quot;font-size: 14px;&quot;&gt;&lt;b&gt;Linear&lt;br&gt;&lt;/b&gt;(hidden size = 32)&lt;b&gt;&lt;br&gt;&lt;/b&gt;&lt;/font&gt;" style="rounded=1;whiteSpace=wrap;html=1;fillColor=#dae8fc;gradientColor=#7ea6e0;strokeColor=#6c8ebf;" parent="1" vertex="1">
          <mxGeometry x="350" y="85" width="120" height="40" as="geometry" />
        </mxCell>
        <mxCell id="AVl82IMYhrW8MOQw_asO-45" value="" style="endArrow=classic;html=1;rounded=0;entryX=0;entryY=0.5;entryDx=0;entryDy=0;" parent="1" edge="1">
          <mxGeometry width="50" height="50" relative="1" as="geometry">
            <mxPoint x="280" y="105" as="sourcePoint" />
            <mxPoint x="350" y="104.76" as="targetPoint" />
          </mxGeometry>
        </mxCell>
        <mxCell id="AVl82IMYhrW8MOQw_asO-46" value="" style="ellipse;whiteSpace=wrap;html=1;aspect=fixed;" parent="1" vertex="1">
          <mxGeometry x="510" y="175" width="20" height="20" as="geometry" />
        </mxCell>
        <mxCell id="AVl82IMYhrW8MOQw_asO-48" value="" style="endArrow=none;html=1;rounded=0;exitX=1;exitY=0.5;exitDx=0;exitDy=0;entryX=0.5;entryY=0;entryDx=0;entryDy=0;" parent="1" source="AVl82IMYhrW8MOQw_asO-43" target="AVl82IMYhrW8MOQw_asO-46" edge="1">
          <mxGeometry width="50" height="50" relative="1" as="geometry">
            <mxPoint x="500" y="220" as="sourcePoint" />
            <mxPoint x="520" y="175" as="targetPoint" />
            <Array as="points">
              <mxPoint x="520" y="105" />
            </Array>
          </mxGeometry>
        </mxCell>
        <mxCell id="AVl82IMYhrW8MOQw_asO-49" value="" style="shape=image;html=1;verticalAlign=top;verticalLabelPosition=bottom;labelBackgroundColor=#ffffff;imageAspect=0;aspect=fixed;image=https://cdn3.iconfinder.com/data/icons/user-interface-169/32/plus-128.png" parent="1" vertex="1">
          <mxGeometry x="512.5" y="177.5" width="15" height="15" as="geometry" />
        </mxCell>
        <mxCell id="AVl82IMYhrW8MOQw_asO-51" value="" style="endArrow=none;html=1;rounded=0;exitX=1;exitY=0.5;exitDx=0;exitDy=0;entryX=0;entryY=0.5;entryDx=0;entryDy=0;" parent="1" source="AVl82IMYhrW8MOQw_asO-42" target="AVl82IMYhrW8MOQw_asO-46" edge="1">
          <mxGeometry width="50" height="50" relative="1" as="geometry">
            <mxPoint x="500" y="220" as="sourcePoint" />
            <mxPoint x="550" y="170" as="targetPoint" />
          </mxGeometry>
        </mxCell>
        <mxCell id="AVl82IMYhrW8MOQw_asO-54" value="" style="endArrow=classic;html=1;rounded=0;exitX=1;exitY=1;exitDx=0;exitDy=0;entryX=0;entryY=0.5;entryDx=0;entryDy=0;" parent="1" edge="1">
          <mxGeometry width="50" height="50" relative="1" as="geometry">
            <mxPoint x="280" y="184.86" as="sourcePoint" />
            <mxPoint x="350" y="184.86" as="targetPoint" />
          </mxGeometry>
        </mxCell>
        <mxCell id="AVl82IMYhrW8MOQw_asO-55" value="&lt;font style=&quot;font-size: 14px;&quot;&gt;&lt;b&gt;Linear&lt;/b&gt;&lt;br&gt;(hidden size = 64)&lt;br&gt;&lt;/font&gt;" style="rounded=1;whiteSpace=wrap;html=1;fillColor=#dae8fc;gradientColor=#7ea6e0;strokeColor=#6c8ebf;" parent="1" vertex="1">
          <mxGeometry x="570" y="165" width="120" height="40" as="geometry" />
        </mxCell>
        <mxCell id="AVl82IMYhrW8MOQw_asO-56" value="&lt;font style=&quot;font-size: 14px;&quot;&gt;&lt;b&gt;Linear&lt;/b&gt;&lt;br&gt;(hidden size = 32)&lt;br&gt;&lt;/font&gt;" style="rounded=1;whiteSpace=wrap;html=1;fillColor=#dae8fc;gradientColor=#7ea6e0;strokeColor=#6c8ebf;" parent="1" vertex="1">
          <mxGeometry x="570" y="250" width="120" height="40" as="geometry" />
        </mxCell>
        <mxCell id="AVl82IMYhrW8MOQw_asO-57" value="" style="endArrow=classic;html=1;rounded=0;exitX=1;exitY=1;exitDx=0;exitDy=0;entryX=0;entryY=0.5;entryDx=0;entryDy=0;" parent="1" target="AVl82IMYhrW8MOQw_asO-55" edge="1">
          <mxGeometry width="50" height="50" relative="1" as="geometry">
            <mxPoint x="530" y="184.76000000000002" as="sourcePoint" />
            <mxPoint x="600" y="184.76000000000002" as="targetPoint" />
          </mxGeometry>
        </mxCell>
        <mxCell id="AVl82IMYhrW8MOQw_asO-58" value="" style="endArrow=classic;html=1;rounded=0;exitX=0.5;exitY=1;exitDx=0;exitDy=0;entryX=0.5;entryY=0;entryDx=0;entryDy=0;" parent="1" source="AVl82IMYhrW8MOQw_asO-55" target="AVl82IMYhrW8MOQw_asO-56" edge="1">
          <mxGeometry width="50" height="50" relative="1" as="geometry">
            <mxPoint x="540" y="194.76000000000002" as="sourcePoint" />
            <mxPoint x="580" y="195" as="targetPoint" />
          </mxGeometry>
        </mxCell>
        <mxCell id="AVl82IMYhrW8MOQw_asO-59" value="&lt;font style=&quot;font-size: 14px;&quot;&gt;&lt;b&gt;Prediction&lt;/b&gt;&lt;/font&gt;" style="rounded=1;whiteSpace=wrap;html=1;fillColor=#d5e8d4;gradientColor=#97d077;strokeColor=#82b366;" parent="1" vertex="1">
          <mxGeometry x="760" y="250" width="120" height="40" as="geometry" />
        </mxCell>
        <mxCell id="AVl82IMYhrW8MOQw_asO-60" value="" style="endArrow=classic;html=1;rounded=0;exitX=1;exitY=0.5;exitDx=0;exitDy=0;entryX=0;entryY=0.5;entryDx=0;entryDy=0;" parent="1" source="AVl82IMYhrW8MOQw_asO-56" target="AVl82IMYhrW8MOQw_asO-59" edge="1">
          <mxGeometry width="50" height="50" relative="1" as="geometry">
            <mxPoint x="640" y="215" as="sourcePoint" />
            <mxPoint x="640" y="260" as="targetPoint" />
          </mxGeometry>
        </mxCell>
        <mxCell id="AVl82IMYhrW8MOQw_asO-61" value="&lt;font style=&quot;font-size: 14px;&quot;&gt;&lt;b&gt;Rainfall Prediction Model&lt;/b&gt;&lt;/font&gt;" style="rounded=1;whiteSpace=wrap;html=1;fillColor=none;strokeColor=none;" parent="1" vertex="1">
          <mxGeometry x="437.5" y="40" width="175" height="30" as="geometry" />
        </mxCell>
      </root>
    </mxGraphModel>
  </diagram>
</mxfile>
